<svg width="22" height="22" viewBox="0 0 22 22" fill="white" xmlns="http://www.w3.org/2000/svg">
<rect x="0.171387" y="3"  width="4" height="4" transform="rotate(-45 0.171387 3)"/>
<rect x="0.171387" y="11" width="4" height="4" transform="rotate(-45 0.171387 11)"/>
<rect x="0.171387" y="19" width="4" height="4" transform="rotate(-45 0.171387 19)"/>
<rect x="8.17139"  y="3"  width="4" height="4" transform="rotate(-45 8.17139 3)"/>
<rect x="8.17139"  y="11" width="4" height="4" transform="rotate(-45 8.17139 11)"/>
<rect x="8.17139"  y="19" width="4" height="4" transform="rotate(-45 8.17139 19)"/>
<rect x="16.1714"  y="3"  width="4" height="4" transform="rotate(-45 16.1714 3)"/>
<rect x="16.1714"  y="11" width="4" height="4" transform="rotate(-45 16.1714 11)"/>
<rect x="16.1714"  y="19" width="4" height="4" transform="rotate(-45 16.1714 19)"/>
</svg>
