<svg width="231" height="231" viewBox="0 0 231 231" fill="none" xmlns="http://www.w3.org/2000/svg">
<path d="M129.938 166.031H115.5V151.594C115.494 145.852 113.211 140.347 109.151 136.287C105.091 132.227 99.5856 129.943 93.8438 129.938H64.9688C59.2269 129.943 53.7219 132.227 49.6618 136.287C45.6017 140.347 43.3182 145.852 43.3125 151.594V166.031H28.875V151.594C28.8865 142.025 32.6929 132.851 39.4593 126.084C46.2257 119.318 55.3996 115.511 64.9688 115.5H93.8438C103.413 115.511 112.587 119.318 119.353 126.084C126.12 132.851 129.926 142.025 129.938 151.594V166.031Z" fill="white"/>
<path d="M79.4063 43.3125C83.6895 43.3125 87.8765 44.5826 91.4378 46.9622C94.9992 49.3419 97.7749 52.7241 99.414 56.6813C101.053 60.6384 101.482 64.9928 100.646 69.1937C99.8108 73.3946 97.7482 77.2534 94.7196 80.282C91.6909 83.3107 87.8321 85.3733 83.6312 86.2089C79.4303 87.0445 75.0759 86.6156 71.1188 84.9765C67.1616 83.3374 63.7794 80.5617 61.3998 77.0003C59.0201 73.439 57.75 69.252 57.75 64.9688C57.75 59.2252 60.0316 53.7168 64.093 49.6555C68.1543 45.5941 73.6627 43.3125 79.4063 43.3125ZM79.4063 28.875C72.2676 28.875 65.2892 30.9919 59.3537 34.9579C53.4181 38.9239 48.7918 44.561 46.06 51.1563C43.3281 57.7515 42.6134 65.0088 44.006 72.0103C45.3987 79.0118 48.8363 85.4431 53.8841 90.4909C58.9319 95.5387 65.3632 98.9763 72.3647 100.369C79.3662 101.762 86.6235 101.047 93.2187 98.315C99.814 95.5832 105.451 90.957 109.417 85.0214C113.383 79.0858 115.5 72.1074 115.5 64.9688C115.5 55.3961 111.697 46.2155 104.928 39.4466C98.1595 32.6777 88.9789 28.875 79.4063 28.875Z" fill="white"/>
<path d="M14.4375 187.688H216.562V202.125H14.4375V187.688Z" fill="white"/>
<path d="M197.091 57.7484C194.523 57.7486 191.981 58.2636 189.616 59.263C187.25 60.2623 185.109 61.7257 183.318 63.5667L180.467 66.483L177.615 63.5594C175.825 61.7189 173.683 60.2558 171.317 59.2569C168.952 58.2579 166.41 57.7432 163.842 57.7432C161.274 57.7432 158.732 58.2579 156.366 59.2569C154.001 60.2558 151.859 61.7189 150.068 63.5594C146.417 67.3298 144.375 72.3727 144.375 77.6216C144.375 82.8704 146.417 87.9134 150.068 91.6837L180.467 122.717L210.858 91.6909C214.509 87.9206 216.551 82.8776 216.551 77.6288C216.551 72.38 214.509 67.337 210.858 63.5667C209.069 61.7274 206.93 60.2651 204.567 59.2658C202.204 58.2665 199.664 57.7505 197.099 57.7484H197.091Z" fill="white"/>
</svg>
