<svg width="218" height="200" viewBox="0 0 218 200" fill="none" xmlns="http://www.w3.org/2000/svg">
<path d="M210.143 60.8706C205.1 48.9251 197.876 38.2145 188.676 29.0374C169.895 10.3064 144.901 0 118.265 0H118.061C100.273 0.0348936 82.4083 5.17277 66.398 14.857C51.2845 23.9983 38.6822 36.8494 30.9117 51.0443C30.617 51.6205 30.5588 52.289 30.7494 52.9075C30.9401 53.526 31.3645 54.0459 31.9327 54.3565C32.5008 54.6672 33.1677 54.7441 33.7917 54.5711C34.4157 54.398 34.9476 53.9886 35.2743 53.4298C42.6309 39.9923 54.5988 27.8034 68.9723 19.1089C84.211 9.89277 101.188 5.0034 118.073 4.97021H118.267C143.573 4.97021 167.323 14.7626 185.164 32.5557C203.132 50.4783 213.027 74.3864 213.027 99.8757C213.027 125.226 203.15 149.058 185.215 166.983C167.278 184.908 143.433 194.78 118.067 194.78C101.247 194.78 84.722 190.328 70.2777 181.905C56.23 173.701 44.5113 162.048 36.2323 148.049C36.0686 147.764 35.8499 147.514 35.5887 147.313C35.3275 147.113 35.0291 146.966 34.7108 146.882C34.3925 146.798 34.0606 146.778 33.7345 146.823C33.4083 146.868 33.0944 146.977 32.8108 147.144C32.5273 147.312 32.2798 147.534 32.0827 147.797C31.8856 148.061 31.7429 148.361 31.6628 148.68C31.5827 148.999 31.5668 149.331 31.6161 149.656C31.6653 149.982 31.7788 150.294 31.9498 150.575C40.6606 165.305 52.9912 177.566 67.7725 186.198C82.9754 195.064 100.367 199.751 118.067 199.751C144.761 199.751 169.856 189.362 188.73 170.498C207.605 151.633 218 126.553 218 99.8757C218 86.3396 215.358 73.217 210.143 60.8706ZM11.6042 71.606H42.9988C43.6583 71.606 44.2907 71.3441 44.7571 70.8781C45.2234 70.412 45.4854 69.7799 45.4854 69.1209C45.4854 68.4618 45.2234 67.8297 44.7571 67.3636C44.2907 66.8976 43.6583 66.6357 42.9988 66.6357H11.6051C10.9456 66.6357 10.3131 66.8976 9.84683 67.3636C9.38051 67.8297 9.11853 68.4618 9.11853 69.1209C9.11853 69.7799 9.38051 70.412 9.84683 70.8781C10.3131 71.3441 10.9456 71.606 11.6051 71.606H11.6042ZM32.3279 101.325C32.3279 100.666 32.0659 100.034 31.5996 99.5679C31.1332 99.1018 30.5008 98.84 29.8413 98.84H2.48656C1.82709 98.84 1.19462 99.1018 0.728297 99.5679C0.261976 100.034 0 100.666 0 101.325C0 101.984 0.261976 102.616 0.728297 103.082C1.19462 103.548 1.82709 103.81 2.48656 103.81H29.8405C30.4999 103.81 31.1324 103.548 31.5987 103.082C32.065 102.616 32.327 101.984 32.327 101.325H32.3279ZM42.8949 133.529C42.8949 132.87 42.6329 132.238 42.1666 131.772C41.7003 131.306 41.0678 131.044 40.4083 131.044H6.83975C6.18027 131.044 5.54781 131.306 5.08148 131.772C4.61516 132.238 4.35319 132.87 4.35319 133.529C4.35319 134.188 4.61516 134.821 5.08148 135.287C5.54781 135.753 6.18027 136.014 6.83975 136.014H40.41C41.0695 136.014 41.702 135.753 42.1683 135.287C42.6346 134.821 42.8966 134.188 42.8966 133.529H42.8949ZM65.0543 81.4102C65.3771 81.3578 65.6864 81.2423 65.9645 81.0702C66.2426 80.8981 66.484 80.6728 66.6748 80.4074C66.8656 80.1419 67.0021 79.8413 67.0765 79.523C67.1509 79.2047 67.1617 78.8748 67.1082 78.5523C65.268 67.4306 67.1312 57.5396 72.4986 49.9438C77.2163 43.2672 84.5389 38.5404 93.115 36.6357C110.047 32.8757 130.403 40.5311 136.551 62.44C136.648 62.7864 136.819 63.1076 137.053 63.3814C137.286 63.6551 137.577 63.8749 137.903 64.0255C138.23 64.1761 138.586 64.254 138.946 64.2537C139.306 64.2534 139.662 64.175 139.988 64.0238C146.859 60.8502 153.857 60.6255 159.697 63.3923C165.648 66.2119 169.971 71.8128 171.869 79.1643C171.988 79.6243 172.236 80.0406 172.584 80.364C172.932 80.6874 173.366 80.9043 173.834 80.9889C190.039 83.92 196.859 96.2996 196.428 107.267C196.198 113.103 193.969 118.62 190.149 122.802C185.906 127.447 179.874 130.294 172.699 131.043H145.343C144.714 131.044 144.108 131.282 143.648 131.711L101.956 170.508V133.219C101.956 132.56 101.694 131.928 101.228 131.462C100.761 130.995 100.129 130.734 99.4693 130.734H66.0157C59.3343 130.228 53.6229 127.5 49.4954 122.839C45.7255 118.58 43.5021 112.959 43.2364 107.009C42.9724 101.071 44.7079 95.3438 48.1235 90.8851C51.97 85.8638 57.8245 82.5881 65.0543 81.4102ZM38.2684 107.231C38.8389 120.023 47.6807 134.386 65.744 135.697C65.8036 135.701 65.8633 135.704 65.9229 135.704H96.981V176.218C96.9812 176.702 97.1227 177.175 97.3882 177.58C97.6536 177.984 98.0315 178.303 98.4754 178.496C98.9193 178.689 99.41 178.749 99.8873 178.667C100.365 178.586 100.808 178.367 101.162 178.037L146.321 136.014H172.825C172.909 136.014 172.992 136.01 173.076 136.002C191.94 134.1 200.893 120.297 201.397 107.462C201.676 100.339 199.45 93.3685 195.128 87.834C190.629 82.0757 184.128 78.1455 176.256 76.4068C173.789 68.343 168.709 62.1617 161.826 58.9004C155.387 55.8511 147.907 55.703 140.507 58.4306C137.021 48.3004 130.453 40.4502 121.386 35.6247C112.529 30.9115 102.106 29.5481 92.036 31.7838C82.2499 33.9574 73.8679 39.3889 68.4358 47.0774C62.6946 55.2 60.4379 65.4953 61.8549 76.9711C44.8271 80.8332 37.7106 94.7115 38.2684 107.231V107.231ZM79.3018 94.0783C83.2436 94.0783 86.4515 97.2834 86.4515 101.223C86.4515 105.163 83.2436 108.369 79.3018 108.369C75.359 108.369 72.152 105.163 72.152 101.223C72.152 97.2834 75.3599 94.0783 79.3018 94.0783ZM108.292 72.7362C112.234 72.7362 115.441 75.9413 115.441 79.8809C115.441 83.8213 112.234 87.0264 108.292 87.0264C104.35 87.0264 101.143 83.8213 101.143 79.8809C101.143 75.9413 104.35 72.7362 108.292 72.7362ZM132.438 114.071C132.438 118.012 129.231 121.217 125.288 121.217C121.345 121.217 118.139 118.012 118.139 114.071C118.139 110.132 121.346 106.927 125.288 106.927C129.231 106.927 132.438 110.132 132.438 114.071ZM152.725 84.9643C156.667 84.9643 159.874 88.1694 159.874 92.1089C159.874 96.0485 156.667 99.2536 152.725 99.2536C148.782 99.2536 145.575 96.0485 145.575 92.1089C145.575 88.1694 148.782 84.9643 152.725 84.9643ZM79.3018 113.339C85.9865 113.339 91.4246 107.904 91.4246 101.223C91.4246 99.5209 91.0695 97.8996 90.4325 96.4281L99.9956 88.703C101.342 89.9742 102.964 90.9187 104.734 91.4634C106.505 92.0081 108.377 92.1384 110.206 91.8443L116.715 105.515C115.589 106.638 114.696 107.971 114.087 109.44C113.478 110.908 113.165 112.482 113.166 114.071C113.166 120.752 118.604 126.187 125.288 126.187C131.973 126.187 137.411 120.752 137.411 114.071C137.411 112.039 136.905 110.123 136.016 108.438L145.015 101.452C147.183 103.246 149.91 104.227 152.725 104.224C159.409 104.224 164.847 98.7898 164.847 92.1089C164.847 85.4281 159.409 79.9932 152.725 79.9932C146.04 79.9932 140.602 85.4281 140.602 92.1089C140.602 94.0732 141.075 95.9277 141.909 97.5702L132.843 104.607C130.7 102.89 128.035 101.955 125.288 101.957C123.793 101.956 122.311 102.233 120.918 102.774L114.862 90.0553C118.2 87.8945 120.414 84.143 120.414 79.8809C120.414 73.2009 114.977 67.766 108.292 67.766C101.608 67.766 96.1695 73.2009 96.1695 79.8809C96.1695 81.5626 96.5144 83.1651 97.1369 84.6213L87.5551 92.3609C85.3168 90.269 82.3662 89.1062 79.3018 89.1081C72.617 89.1081 67.1789 94.5421 67.1789 101.223C67.1789 107.904 72.617 113.339 79.3018 113.339Z" fill="white"/>
</svg>
