<svg width="225" height="225" viewBox="0 0 225 225" fill="none" xmlns="http://www.w3.org/2000/svg">
<path d="M112.5 108C105.75 108 101.25 112.5 101.25 119.25C101.25 123.75 104.625 127.125 108 128.25L104.625 144H119.25L115.875 128.25C120.375 127.125 122.625 123.75 122.625 119.25C123.75 112.5 119.25 108 112.5 108ZM113.625 59.625C105.75 59.625 97.875 65.25 97.875 73.125V90H128.25V73.125C127.125 65.25 121.5 59.625 113.625 59.625ZM112.5 22.5L33.75 56.25V90C34.875 139.5 66.375 183.375 112.5 201.375C158.625 183.375 190.125 139.5 191.25 90V56.25L112.5 22.5ZM157.5 146.25C157.5 153 153 157.5 146.25 157.5H78.75C72 157.5 67.5 153 67.5 146.25V101.25C67.5 94.5 72 90 78.75 90H82.125V73.125C83.25 57.375 96.75 45 112.5 45C128.25 45 141.75 57.375 142.875 73.125V90H146.25C153 90 157.5 94.5 157.5 101.25V146.25Z" fill="white"/>
</svg>
